<svg xmlns="http://www.w3.org/2000/svg" viewBox="0 0 18 18" role="img" aria-label="Google">
  <path
    fill="#4285F4"
    d="M17.64 9.2045c0-.638-.0573-1.2518-.1636-1.8409H9v3.4818h4.8436c-.2086 1.125-.8427 2.0781-1.7968 2.7154v2.2582h2.9086c1.7018-1.5663 2.6845-3.8745 2.6845-6.6145z"
  />
  <path
    fill="#34A853"
    d="M9 18c2.43 0 4.4672-.8063 5.9563-2.1809l-2.9086-2.2582c-.8063.5409-1.8368.8591-3.0477.8591-2.3441 0-4.3282-1.5831-5.0368-3.7091H.9568v2.3318C2.4377 15.9854 5.4818 18 9 18z"
  />
  <path
    fill="#FBBC05"
    d="M3.9632 10.7109c-.1809-.5409-.2841-1.1181-.2841-1.7109s.1032-1.17.2841-1.7109V4.9572H.9568C.3477 6.1718 0 7.5445 0 9s.3477 2.8282.9568 4.0427l3.0064-2.3318z"
  />
  <path
    fill="#EA4335"
    d="M9 3.5791c1.3218 0 2.5077.4541 3.4418 1.345l2.5813-2.5813C13.4632.8904 11.4264 0 9 0 5.4818 0 2.4377 2.0145.9568 4.9572l3.0064 2.3318C4.6718 5.1622 6.6559 3.5791 9 3.5791z"
  />
</svg>
